# xmcd
#
# Track frame offsets:
#	150
#	24090
#	45075
#	72952
#	92905
#	113335
#	131607
#	149837
#	170835
#	186855
#	208592
#	244670
#	255767
#	278375
#	295277
#
# Disc length: 4087 seconds
#
# Revision: 1
# Processed by: cddbd v1.4PL0 Copyright (c) Steve Scherf et al.
# Submitted via: audiograbber 1.81.03
#
DISCID=cd0ff50f
DTITLE=Various Artist -  Chicago Blues 2 (JSP) - CD 2
DYEAR=1997
DGENRE=Blues
TTITLE0=Brewer Phillips and The Houserockers - Whisky Drinking Woman
TTITLE1=Brewer Phillips and The Houserockers - Poison Ivy
TTITLE2=Brewer Phillips and The Houserockers - Boy Blues
TTITLE3=J.T. Burks - Partnership Woman
TTITLE4=J.T. Burks - Minnie Sue
TTITLE5=J.T. Burks - Cadillac Driven Woman
TTITLE6=J.T. Burks - Racetrack Blues
TTITLE7=Jimmy Rogers - Take A Walk With Me
TTITLE8=Charlie Sayles - Little Walter's Blues
TTITLE9=Lucky Lopez Evans - Tail Draggin'
TTITLE10=Lucky Lopez Evans - Extra Extra
TTITLE11=Johnny Mars - Rocket 88
TTITLE12=Deitra Farr - This I Know To Be True
TTITLE13=Doc Terry - Who Do Blues
TTITLE14=Joe Carter - Talk To Your Daughter
EXTD=
EXTT0=
EXTT1=
EXTT2=
EXTT3=
EXTT4=
EXTT5=
EXTT6=
EXTT7=
EXTT8=
EXTT9=
EXTT10=
EXTT11=
EXTT12=
EXTT13=
EXTT14=
PLAYORDER=
